<svg width="33" height="30" viewBox="0 0 33 30" fill="none" xmlns="http://www.w3.org/2000/svg">
<path d="M20.875 0.375H7.74998C6.53956 0.375 5.50415 1.10417 5.06665 2.15417L0.66248 12.4354C0.53123 12.7708 0.458313 13.1208 0.458313 13.5V16.4167C0.458313 18.0208 1.77081 19.3333 3.37498 19.3333H12.5771L11.1916 25.9979L11.1479 26.4646C11.1479 27.0625 11.3958 27.6167 11.7896 28.0104L13.3354 29.5417L22.9312 19.9312C23.4708 19.4062 23.7916 18.6771 23.7916 17.875V3.29167C23.7916 1.6875 22.4791 0.375 20.875 0.375ZM20.875 17.875L14.5458 24.2042L16.1646 16.4167H3.37498V13.5L7.74998 3.29167H20.875V17.875ZM26.7083 0.375H32.5416V17.875H26.7083V0.375Z" fill="black"/>
</svg>
