<svg width="32" height="30" viewBox="0 0 32 30" fill="none" xmlns="http://www.w3.org/2000/svg">
<path d="M11.7394 29.625H24.4788C25.6537 29.625 26.6587 28.8958 27.0833 27.8458L31.3581 17.5646C31.4855 17.2291 31.5563 16.8791 31.5563 16.5V13.5833C31.5563 11.9791 30.2823 10.6666 28.7253 10.6666H19.7936L21.1383 4.00206L21.1807 3.5354C21.1807 2.93748 20.9401 2.38331 20.5579 1.98956L19.0575 0.458313L9.72944 10.0687C9.21986 10.5937 8.90845 11.3229 8.90845 12.125V26.7083C8.90845 28.3125 10.1824 29.625 11.7394 29.625ZM11.7394 12.125L17.8826 5.79581L15.9859 13.5833H28.7253V16.5L24.4788 26.7083H11.7394V12.125ZM0.415527 12.125H6.07748V29.625H0.415527V12.125Z" fill="black"/>
</svg>
