<svg width="35" height="35x" viewBox="0 0 60 61" fill="none" xmlns="http://www.w3.org/2000/svg">
<path d="M30 30.5C27.25 30.5 24.8958 29.5045 22.9375 27.5136C20.9792 25.5226 20 23.1292 20 20.3334C20 17.5375 20.9792 15.1441 22.9375 13.1531C24.8958 11.1622 27.25 10.1667 30 10.1667C32.75 10.1667 35.1042 11.1622 37.0625 13.1531C39.0208 15.1441 40 17.5375 40 20.3334C40 23.1292 39.0208 25.5226 37.0625 27.5136C35.1042 29.5045 32.75 30.5 30 30.5ZM10 50.8334V43.7167C10 42.2764 10.3646 40.9526 11.0938 39.7453C11.8229 38.538 12.7917 37.6167 14 36.9813C16.5833 35.6681 19.2083 34.6832 21.875 34.0266C24.5417 33.37 27.25 33.0417 30 33.0417C32.75 33.0417 35.4583 33.37 38.125 34.0266C40.7917 34.6832 43.4167 35.6681 46 36.9813C47.2083 37.6167 48.1771 38.538 48.9062 39.7453C49.6354 40.9526 50 42.2764 50 43.7167V50.8334H10ZM15 45.75H45V43.7167C45 43.2507 44.8854 42.8271 44.6563 42.4459C44.4271 42.0646 44.125 41.7681 43.75 41.5563C41.5 40.4125 39.2292 39.5547 36.9375 38.9828C34.6458 38.411 32.3333 38.125 30 38.125C27.6667 38.125 25.3542 38.411 23.0625 38.9828C20.7708 39.5547 18.5 40.4125 16.25 41.5563C15.875 41.7681 15.5729 42.0646 15.3438 42.4459C15.1146 42.8271 15 43.2507 15 43.7167V45.75ZM30 25.4167C31.375 25.4167 32.5521 24.9189 33.5313 23.9235C34.5104 22.928 35 21.7313 35 20.3334C35 18.9354 34.5104 17.7387 33.5313 16.7432C32.5521 15.7478 31.375 15.25 30 15.25C28.625 15.25 27.4479 15.7478 26.4688 16.7432C25.4896 17.7387 25 18.9354 25 20.3334C25 21.7313 25.4896 22.928 26.4688 23.9235C27.4479 24.9189 28.625 25.4167 30 25.4167Z" fill="#1D1B20"/>
</svg>
