<svg width="78" height="78" viewBox="0 0 78 78" fill="none" xmlns="http://www.w3.org/2000/svg">
<path d="M39 0C17.472 0 0 17.472 0 39C0 60.528 17.472 78 39 78C60.528 78 78 60.528 78 39C78 17.472 60.528 0 39 0ZM39 11.7C45.474 11.7 50.7 16.926 50.7 23.4C50.7 29.874 45.474 35.1 39 35.1C32.526 35.1 27.3 29.874 27.3 23.4C27.3 16.926 32.526 11.7 39 11.7ZM39 67.08C29.25 67.08 20.631 62.088 15.6 54.522C15.717 46.761 31.2 42.51 39 42.51C46.761 42.51 62.283 46.761 62.4 54.522C57.369 62.088 48.75 67.08 39 67.08Z" fill="#ABE6FF"/>
</svg>
